<svg width="328" height="266" xmlns="http://www.w3.org/2000/svg"><g fill-rule="nonzero" fill="none"><path d="M306.145 87H144v132.025c0 10.374 8.441 18.784 18.854 18.784h99.855l18.346 18.28c1.955 1.947 5.297.568 5.297-2.186v-16.094h19.794c10.413 0 18.854-8.41 18.854-18.784v-113.24C325 95.41 316.557 87 306.145 87z" fill="#EA3B38"/><path d="M286.43 145.488h-14.861c-1.973 0-3.572 1.614-3.572 3.606v3.859h-14.301c-4.187-6.235-11.126-9.953-18.597-9.953H192.51c-4.141 0-7.51 3.401-7.51 7.58a7.586 7.586 0 005.338 7.257 7.586 7.586 0 00-5.338 7.258c0 3.417 2.253 6.314 5.338 7.256A7.586 7.586 0 00185 179.61a7.586 7.586 0 005.338 7.257 7.586 7.586 0 00-5.338 7.257c0 4.18 3.37 7.58 7.51 7.58h24.949v17.717c0 4.18 3.369 7.58 7.51 7.58 4.14 0 7.51-3.401 7.51-7.58v-17.845l9.758-5.199a22.615 22.615 0 008.074-7.278l2.971-4.399h14.713v2.615c0 1.992 1.599 3.606 3.572 3.606h14.86c1.974 0 3.573-1.614 3.573-3.606V149.09c.003-1.988-1.597-3.603-3.57-3.603z" fill="#E40136"/><path d="M234.142 218c-4.159 0-7.541-3.401-7.541-7.58v-17.717h-25.058c-4.16 0-7.543-3.4-7.543-7.58a7.59 7.59 0 015.362-7.257 7.59 7.59 0 01-5.362-7.257 7.59 7.59 0 015.362-7.258 7.59 7.59 0 01-5.362-7.256 7.59 7.59 0 015.362-7.258A7.59 7.59 0 01194 141.58c0-4.18 3.384-7.58 7.543-7.58h42.774c7.503 0 14.472 3.718 18.677 9.953H278v31.75h-15.42l-2.984 4.398a22.68 22.68 0 01-8.109 7.278l-9.801 5.2v17.844c0 4.177-3.384 7.577-7.544 7.577z" fill="#FAD393"/><g fill="#EDB769"><path d="M270.43 143.368h6.961v31.372h-6.961zM252.097 179.087a22.444 22.444 0 01-8.078 7.192l-9.764 5.137v17.632c0 2.878-1.64 5.379-4.034 6.633a7.487 7.487 0 004.12.83c3.934-.331 6.875-3.776 6.875-7.711v-17.386l9.764-5.137a22.455 22.455 0 008.079-7.191l2.973-4.347h-4.374a4.901 4.901 0 00-4.045 2.13l-1.516 2.218z"/></g><path d="M276 177.429V139.57c0-1.972 1.671-3.571 3.734-3.571h15.532c2.063 0 3.734 1.599 3.734 3.571v37.858c0 1.972-1.671 3.571-3.734 3.571h-15.532c-2.063 0-3.734-1.599-3.734-3.571z" fill="#31D2F7"/><path d="M291.233 172.772c-2.062 0-3.733-1.599-3.733-3.572V136h-7.766c-2.063 0-3.734 1.599-3.734 3.571v37.858c0 1.972 1.671 3.571 3.734 3.571h15.532c2.063 0 3.734-1.599 3.734-3.571v-4.657h-7.767z" fill="#13ACE8"/><path d="M37.388 139.23H19.811C10.527 139.23 3 131.676 3 122.36V20.87C3 11.553 10.526 4 19.811 4H168.19C177.473 4 185 11.553 185 20.87v101.49c0 9.316-7.526 16.87-16.811 16.87H58.474l-15.797 15.853c-1.952 1.959-5.289.572-5.289-2.198V139.23z" fill="#FFCF59"/><path d="M153 80.39a7.585 7.585 0 00-5.338-7.257A7.585 7.585 0 00153 65.876c0-4.18-3.37-7.58-7.51-7.58h-24.948V40.58c0-4.18-3.369-7.58-7.51-7.58-4.14 0-7.51 3.4-7.51 7.58v17.844l-9.758 5.199a22.615 22.615 0 00-8.073 7.278l-2.972 4.398H70.007v-1.89c0-2.392-1.921-4.33-4.29-4.33H52.29c-2.37 0-4.291 1.939-4.291 4.33v36.772c0 2.392 1.921 4.33 4.291 4.33h13.423c2.37 0 4.29-1.938 4.29-4.33v-3.133h14.301C88.492 113.282 95.43 117 102.901 117h42.589c4.14 0 7.51-3.4 7.51-7.58a7.586 7.586 0 00-5.339-7.257A7.586 7.586 0 00153 94.906a7.585 7.585 0 00-5.339-7.256A7.59 7.59 0 00153 80.39z" fill="#F9BF3E"/><path d="M91.684 109c-7.503 0-14.472-3.718-18.677-9.952H58v-31.75h15.42l2.984-4.398a22.68 22.68 0 018.109-7.278l9.802-5.2V32.58c0-4.18 3.384-7.58 7.542-7.58 4.159 0 7.542 3.401 7.542 7.58v17.716h25.058c4.16 0 7.543 3.401 7.543 7.58a7.59 7.59 0 01-5.362 7.257A7.59 7.59 0 01142 72.39a7.59 7.59 0 01-5.362 7.257A7.59 7.59 0 01142 86.904a7.59 7.59 0 01-5.362 7.257 7.59 7.59 0 015.362 7.257c0 4.18-3.384 7.58-7.543 7.58H91.683V109h.001z" fill="#FAD393"/><g fill="#EDB769"><path d="M58.289 67.435h8.382v31.372h-8.382zM84.764 63.088a22.258 22.258 0 017.973-7.192l6.53-3.48a5.889 5.889 0 003.105-5.202V33.127c0-2.56 1.28-4.821 3.226-6.173a7.326 7.326 0 00-4.968-1.277c-3.813.396-6.64 3.78-6.64 7.651V50.76l-9.635 5.137a22.252 22.252 0 00-7.972 7.192l-2.935 4.346h8.382l2.934-4.347z"/></g><path d="M36 102.71V66.29c0-2.37 2.008-4.29 4.485-4.29h14.03C56.992 62 59 63.92 59 66.29v36.42c0 2.37-2.008 4.29-4.485 4.29h-14.03c-2.477 0-4.485-1.92-4.485-4.29z" fill="#31D2F7"/><path d="M54.077 94.78c-2.478 0-4.485-1.92-4.485-4.29V62h-9.107C38.008 62 36 63.92 36 66.29v36.42c0 2.37 2.008 4.29 4.485 4.29h14.03c2.477 0 4.485-1.92 4.485-4.29v-7.93h-4.923z" fill="#13ACE8"/><path d="M143.599 92.857c1.507-2 2.401-4.486 2.401-7.176 0-2.689-.894-5.175-2.401-7.174A11.887 11.887 0 00146 71.33c0-2.689-.894-5.175-2.401-7.175 1.507-2 2.401-4.486 2.401-7.175 0-6.6-5.38-11.968-11.995-11.968H113.53V31.967c0-6.599-5.38-11.967-11.994-11.967-6.615 0-11.996 5.368-11.996 11.967v14.947l-7.37 3.881a27.029 27.029 0 00-9.69 8.634l-1.637 2.394h-8.068c-.8-3.515-3.953-6.15-7.716-6.15H39.918c-4.366 0-7.918 3.544-7.918 7.9v38.068c0 4.356 3.552 7.899 7.918 7.899H55.06a7.914 7.914 0 007.891-7.38h7.605A26.918 26.918 0 0091.403 112h42.602c6.614 0 11.995-5.368 11.995-11.967 0-2.69-.894-5.176-2.401-7.176zM53.37 99.956H41.607v-34.7h11.765V99.956zm80.634-31.01a2.39 2.39 0 012.389 2.384 2.39 2.39 0 01-2.39 2.383 4.797 4.797 0 00-4.803 4.792 4.797 4.797 0 004.804 4.792c1.317 0 2.389 1.07 2.389 2.383a2.39 2.39 0 01-2.39 2.384 4.797 4.797 0 00-4.803 4.791 4.797 4.797 0 004.804 4.792 2.39 2.39 0 012.389 2.384 2.39 2.39 0 01-2.39 2.383H91.404c-5.815 0-11.21-2.88-14.435-7.707a4.805 4.805 0 00-3.996-2.134h-9.994V71.405h10.404a4.806 4.806 0 003.968-2.092l3.067-4.487a17.392 17.392 0 016.236-5.556l9.932-5.23a4.791 4.791 0 002.561-4.237V31.967a2.39 2.39 0 014.778 0v17.836a4.797 4.797 0 004.803 4.792h25.277a2.39 2.39 0 012.39 2.384 2.39 2.39 0 01-2.39 2.383 4.797 4.797 0 00-4.803 4.792 4.797 4.797 0 004.804 4.792zM295.083 132.46H279.94a7.914 7.914 0 00-7.892 7.38h-7.605a26.918 26.918 0 00-20.845-9.84h-42.603c-6.614 0-11.995 5.368-11.995 11.968 0 2.69.894 5.175 2.401 7.175A11.886 11.886 0 00189 156.32c0 2.689.894 5.175 2.401 7.175a11.887 11.887 0 00-2.401 7.175c0 2.69.894 5.176 2.401 7.176A11.886 11.886 0 00189 185.02c0 6.6 5.381 11.968 11.995 11.968h20.474v13.044c0 6.6 5.38 11.968 11.995 11.968 6.614 0 11.995-5.368 11.995-11.968v-14.947l7.37-3.881a27.029 27.029 0 009.69-8.634l1.637-2.395h8.067c.8 3.516 3.953 6.15 7.716 6.15h15.143c4.366 0 7.918-3.543 7.918-7.899v-38.069c0-4.353-3.551-7.897-7.917-7.897zm-33.464 38.133a4.806 4.806 0 00-3.969 2.093l-3.067 4.487a17.392 17.392 0 01-6.236 5.556l-9.932 5.23a4.791 4.791 0 00-2.561 4.238v17.836a2.39 2.39 0 01-4.778 0v-17.836a4.797 4.797 0 00-4.803-4.792h-25.278a2.39 2.39 0 01-2.39-2.384 2.39 2.39 0 012.39-2.384 4.797 4.797 0 004.803-4.792 4.797 4.797 0 00-4.803-4.792 2.39 2.39 0 01-2.39-2.383 2.39 2.39 0 012.39-2.384 4.797 4.797 0 004.803-4.792 4.797 4.797 0 00-4.803-4.792 2.389 2.389 0 01-2.39-2.383 2.39 2.39 0 012.39-2.383 4.797 4.797 0 004.803-4.792 4.797 4.797 0 00-4.803-4.792 2.39 2.39 0 01-2.39-2.384 2.39 2.39 0 012.39-2.383h42.602c5.814 0 11.21 2.88 14.435 7.707a4.805 4.805 0 003.996 2.134h9.993v21.169h-10.404v-.002h.002zm31.775 6.15H281.63v-34.699h11.765v34.7z" fill="#000"/><path d="M304.741 83.02h-114.29V21.277C190.451 9.526 180.937 0 169.201 0H21.25C9.515 0 0 9.526 0 21.277V122.24c0 11.752 9.515 21.277 21.25 21.277h13.038v15.612c0 1.613.719 3.184 2.04 4.108a4.81 4.81 0 006.17-.532l19.164-19.188h19.23a4.812 4.812 0 004.808-4.815 4.812 4.812 0 00-4.809-4.815h-21.22a4.81 4.81 0 00-3.402 1.41l-12.362 12.378V138.7a4.812 4.812 0 00-4.809-4.815H21.251c-6.424 0-11.633-5.214-11.633-11.646V21.277c0-6.432 5.208-11.647 11.633-11.647H169.2c6.424 0 11.632 5.214 11.632 11.647V122.24c0 6.432-5.208 11.647-11.632 11.647h-57.016a4.812 4.812 0 00-4.81 4.815 4.812 4.812 0 004.81 4.815h26.646V219.6c0 12.862 10.413 23.287 23.259 23.287h97.549l21.676 21.703a4.807 4.807 0 006.17.533c1.322-.924 2.04-2.496 2.04-4.109v-18.127h15.216c12.846 0 23.259-10.426 23.259-23.287V106.308c0-12.862-10.413-23.288-23.259-23.288zm13.64 136.58c0 7.53-6.119 13.657-13.64 13.657h-20.026a4.811 4.811 0 00-4.81 4.815v11.488l-14.874-14.893a4.808 4.808 0 00-3.401-1.41h-99.54c-7.521 0-13.64-6.126-13.64-13.657v-76.084h20.75c11.718 0 21.251-9.544 21.251-21.276V92.65h114.29c7.52 0 13.64 6.127 13.64 13.657V219.6z" fill="#000"/></g></svg>