<svg width="315" height="302" xmlns="http://www.w3.org/2000/svg"><g fill-rule="nonzero" fill="none"><g transform="translate(73 7)"><path fill="#D5F5FB" d="M97.041 29.55h42.115v24.171H97.041z"/><path d="M95.938 29.55h44.322c8.16 0 14.774-6.579 14.774-14.695S148.419.16 140.26.16H95.938c-8.16 0-14.774 6.58-14.774 14.695 0 8.116 6.614 14.695 14.774 14.695z" fill="#FF7480"/><ellipse fill="#5DDEF5" cx="118.193" cy="171.28" rx="118.192" ry="117.559"/><ellipse fill="#FFF" cx="118.193" cy="171.28" rx="89.339" ry="88.861"/><ellipse fill="#FF838E" cx="118.193" cy="171.28" rx="12.973" ry="12.903"/></g><g fill="#000"><path d="M314.388 165.514c-2.828-28.381-15.537-55.139-35.787-75.342-17.305-17.265-38.487-28.36-60.774-33.293V41.283c9.103-2.26 15.87-10.48 15.87-20.252 0-11.508-9.384-20.87-20.919-20.87h-44.297c-11.534 0-20.918 9.362-20.918 20.87 0 9.77 6.767 17.991 15.87 20.252v15.64c-22.22 4.953-43.331 16.033-60.587 33.25A124.675 124.675 0 0092.4 102c-.155-.012-.31-.023-.467-.023H48.091c-3.397 0-6.152 2.748-6.152 6.138 0 3.39 2.755 6.138 6.152 6.138h35.937a122.918 122.918 0 00-10.917 23.593H6.152c-3.397 0-6.152 2.748-6.152 6.138 0 3.39 2.755 6.138 6.152 6.138h63.483a124.533 124.533 0 00-3.054 23.594H39.375c-3.397 0-6.152 2.748-6.152 6.138 0 3.39 2.755 6.138 6.152 6.138h27.403c.519 7.945 1.8 15.849 3.841 23.594H30.762c-3.398 0-6.153 2.748-6.153 6.138 0 3.39 2.755 6.138 6.153 6.138h43.783c6.036 15.93 15.468 30.86 28.3 43.662 20.27 20.223 47.117 32.906 75.593 35.713 4.065.4 8.132.598 12.194.598 24.007 0 47.71-6.931 67.822-19.998a6.13 6.13 0 001.798-8.494 6.161 6.161 0 00-8.513-1.794c-44.024 28.602-102.984 22.418-140.193-14.705-43.658-43.558-43.658-114.432 0-157.99 43.658-43.558 114.695-43.558 158.354 0 37.16 37.074 43.391 95.848 14.818 139.75a6.13 6.13 0 001.809 8.49 6.16 6.16 0 008.51-1.804c15.267-23.457 22.14-51.788 19.35-79.776zM159.868 21.031c0-4.738 3.864-8.593 8.613-8.593h44.297c4.75 0 8.613 3.855 8.613 8.593 0 4.74-3.863 8.594-8.613 8.594H168.481c-4.75 0-8.613-3.856-8.613-8.594zm15.869 33.78v-12.91h29.785V54.79a125.644 125.644 0 00-29.785.022z"/><path d="M274.253 255.043a6.193 6.193 0 00-4.35 1.798 6.152 6.152 0 00-1.802 4.34c0 1.614.652 3.198 1.803 4.34a6.168 6.168 0 004.349 1.798c1.618 0 3.2-.65 4.35-1.798a6.177 6.177 0 001.802-4.34 6.175 6.175 0 00-1.802-4.34 6.218 6.218 0 00-4.35-1.798zM190.723 82.626c-52.626 0-95.44 42.716-95.44 95.221 0 52.506 42.814 95.222 95.44 95.222s95.441-42.716 95.441-95.222c0-52.505-42.815-95.221-95.44-95.221zm0 178.166c-45.841 0-83.136-37.209-83.136-82.945 0-45.736 37.295-82.945 83.136-82.945 45.842 0 83.136 37.21 83.136 82.945 0 45.736-37.294 82.945-83.136 82.945z"/><path d="M229.64 130.339l-30.472 30.402a19.037 19.037 0 00-8.445-1.968c-3.03 0-5.896.71-8.444 1.968l-13.638-13.607a6.163 6.163 0 00-8.702 0 6.128 6.128 0 000 8.68l13.638 13.607a18.914 18.914 0 00-1.972 8.426c0 10.517 8.576 19.074 19.118 19.074 10.542 0 19.118-8.557 19.118-19.074 0-3.023-.712-5.883-1.972-8.426l29.578-29.51.894-.892a6.128 6.128 0 000-8.68 6.163 6.163 0 00-8.7 0zm-38.917 54.306c-3.756 0-6.813-3.05-6.813-6.798s3.057-6.797 6.813-6.797c3.757 0 6.813 3.05 6.813 6.797 0 3.748-3.056 6.798-6.813 6.798zM256.504 171.784h-5.7c-3.398 0-6.153 2.748-6.153 6.138 0 3.39 2.755 6.138 6.152 6.138h5.7c3.398 0 6.153-2.748 6.153-6.138 0-3.39-2.755-6.138-6.152-6.138zM130.643 171.634h-5.7c-3.397 0-6.152 2.748-6.152 6.138 0 3.39 2.755 6.139 6.152 6.139h5.7c3.397 0 6.152-2.748 6.152-6.139 0-3.39-2.755-6.138-6.152-6.138zM190.798 124.043c3.398 0 6.153-2.748 6.153-6.138v-5.687c0-3.39-2.755-6.138-6.153-6.138-3.397 0-6.152 2.748-6.152 6.138v5.687c0 3.39 2.755 6.138 6.152 6.138zM190.648 231.652c-3.397 0-6.152 2.748-6.152 6.138v5.686c0 3.39 2.755 6.139 6.152 6.139 3.398 0 6.153-2.748 6.153-6.139v-5.686c0-3.39-2.755-6.138-6.153-6.138zM6.152 209.583a6.206 6.206 0 00-4.35 1.799A6.177 6.177 0 000 215.722c0 1.62.658 3.197 1.803 4.339a6.207 6.207 0 004.35 1.799 6.204 6.204 0 004.348-1.799 6.178 6.178 0 001.804-4.34 6.175 6.175 0 00-1.804-4.34 6.204 6.204 0 00-4.349-1.798z"/></g></g></svg>