<svg width="156" height="165" xmlns="http://www.w3.org/2000/svg"><g fill="none" fill-rule="evenodd"><path d="M19.31 133.078s-7.562 2.289-10.157-.346c-2.594-2.635 0-9.393 0-9.393L22 118l-2.69 15.078z" fill="#F1D0A5" fill-rule="nonzero"/><path d="M62.674 84c12.967 4.45 26.794 7.215 26.794 7.215L90 98.129c-8.192 4.928-30.108 2.608-30.108 2.608s4.753 7.567 5.78 17.73l.42 5.258S67.687 141.917 62.58 155H46.623s4.002-18.548-3.93-26.477C34.764 136.452 38.766 155 38.766 155H22.807c-5.107-13.083-3.51-31.275-3.51-31.275H9C9 94.94 20.69 85.433 22.714 84" fill="#B9E4EF" fill-rule="nonzero"/><path d="M63.276 155H47.408s3.977-18.784-3.91-26.818C35.613 136.216 39.592 155 39.592 155H23.725c-5.077-13.25-3.49-31.677-3.49-31.677 0-1.824.169-3.638.417-5.323h45.696l.417 5.323s1.587 18.427-3.49 31.677z" fill="#665E66" fill-rule="nonzero"/><path d="M28 84c-4.713 6.464-13.3 20.897-13.076 40H9c0-28.985 11.583-38.557 13.59-40H28z" fill="#7AD0DF" fill-rule="nonzero"/><path d="M28 155h-5.02c-5.425-13.25-3.729-31.677-3.729-31.677 0-1.824.18-3.638.445-5.323h8.046c-1.707 6.084-3.817 18.716.258 37zM51.318 155h-4.28S51.15 136.79 43 129c8.318 0 12.595 13.682 8.318 26z" fill="#454045" fill-rule="nonzero"/><path fill="#DF6B57" fill-rule="nonzero" d="M48.17 93H37.83L36 81h14z"/><path d="M76.722 61h.046C80.763 61 84 57.641 84 53.501 84 49.36 80.763 46 76.768 46c-.052 0-.104 0-.156.003H10.388C10.336 46 10.284 46 10.232 46 6.237 46 3 49.359 3 53.501 3 57.641 6.237 61 10.232 61h.046" fill="#F1B986" fill-rule="nonzero"/><path d="M79.316 47.686l-49.585.211L5.11 48C3.232 30.986-2.216 8.889 17.8 4.95c4.806-.945 9.134-1.507 13.023-1.77 26.054-1.756 32.535 9.924 32.535 9.924s4.715-4.112 9.842-3.693c1.853.15 3.762.897 5.52 2.641 9.27 9.205.597 35.634.597 35.634z" fill="#AA593D" fill-rule="nonzero"/><path d="M73 9.03C67.198 13.237 63.4 25.825 61.643 33c-1.72-7.308.382-15.353 1.98-20.23 0 0 4.493-4.164 9.377-3.74zM27.14 28.486l2.762 18.41L5.122 47C3.234 29.917-2.248 7.732 17.895 3.778 22.731 2.828 27.086 2.265 31 2c0 .003-.003.003-.003.003-10.086 6.145-6.97 17.09-3.858 26.483z" fill="#934D36" fill-rule="nonzero"/><path d="M77 55.498c0 3.83-.098 7.662-.294 11.491-.49 9.573-8.156 17.195-17.742 17.647-6.701.317-13.405.426-20.106.33h-.003c-3.607-.05-7.212-.16-10.819-.33-9.583-.452-17.25-8.074-17.742-17.647a224.666 224.666 0 01-.114-20.466h.002c3.737-1.383 5.96-5.684 7.28-10.465 1.356-4.905 6.059-7.587 10.574-6.97 1.76.24 3.493.983 4.986 2.29A15.877 15.877 0 0043.5 35.313c3.74 0 7.482-1.312 10.48-3.935A9.457 9.457 0 0160.255 29c4.089 0 8.056 2.618 9.284 7.059 1.318 4.78 3.542 9.081 7.28 10.464.123 2.993.181 5.984.181 8.975z" fill="#F1D0A5" fill-rule="nonzero"/><path d="M39 85c-3.625-.05-7.248-.161-10.873-.33-9.632-.453-17.337-8.08-17.832-17.658a223.812 223.812 0 01-.114-20.479h.002c3.756-1.384 5.99-5.686 7.317-10.47 1.362-4.91 6.088-7.592 10.626-6.976C24.682 59.684 28.126 84.664 39 85z" fill="#F1B986" fill-rule="nonzero"/><path d="M90 91.204s5.461-4.826 10.486-2.632c5.025 2.194 1.246 11.592-.437 12.065-5.461 1.536-9.503-2.303-9.503-2.303" fill="#F1D0A5" fill-rule="nonzero"/><path fill="#DF6B57" fill-rule="nonzero" d="M37.83 94h10.34L50 106.106 43 111l-7-4.894z"/><path d="M18 162h21v-7H25.606c-4.2 0-7.606 3.134-7.606 7z" fill="#AA593D" fill-rule="nonzero"/><path d="M30 155c-4.047 0-7.33 3.135-7.33 7H18c0-3.865 3.28-7 7.326-7H30z" fill="#934D36" fill-rule="nonzero"/><path d="M68 162H47v-7h13.394c4.2 0 7.606 3.134 7.606 7z" fill="#AA593D" fill-rule="nonzero"/><path d="M154 75.373c-19 12.565-38-12.565-57 0V35.627c19-12.565 38 12.565 57 0v39.746z" fill="#FFF" fill-rule="nonzero"/><path d="M43 71c3.73 0 7.172-2.197 8.771-5.597a2.39 2.39 0 00-1.12-3.172 2.35 2.35 0 00-3.143 1.13A5.01 5.01 0 0143 66.238a5.009 5.009 0 01-4.508-2.877 2.35 2.35 0 00-3.143-1.13 2.391 2.391 0 00-1.12 3.172C35.827 68.803 39.27 71 43 71zM31 51.5c0-2.481-1.346-4.5-3-4.5s-3 2.019-3 4.5 1.346 4.5 3 4.5 3-2.019 3-4.5zM59 56c1.654 0 3-2.019 3-4.5S60.654 47 59 47s-3 2.019-3 4.5 1.345 4.5 3 4.5z" fill="#000" fill-rule="nonzero"/><g fill="#47BCF7"><path d="M121 33l9 4v42l-9-4z"/><path d="M98 49c3.333-2 7.321-3 11.964-3 3.998 0 23.057 7.719 34.039 7.719 3.225 0 5.89-.923 7.997-2.768v8.771c.667 2.307-1.999 3.757-7.997 4.35-8.376.826-26.986-8.072-34.039-8.572-3.505-.248-7.493.585-11.964 2.5v-9z"/></g><path d="M154.732 33.346a2.403 2.403 0 00-2.469.11c-8.522 5.636-17.207 2.764-26.403-.276-8.7-2.877-17.663-5.836-26.828-1.775v-1.264a2.414 2.414 0 00-2.41-2.417 2.414 2.414 0 00-2.41 2.417v55.79c-2.152.62-3.946 1.728-4.996 2.482-2.856-.61-11.049-2.437-19.783-5.103 5.208-3.588 8.69-9.478 9.036-16.26.066-1.299.117-2.601.161-3.905 4.218-1.038 7.358-4.86 7.358-9.405a9.684 9.684 0 00-3.62-7.553c.723-2.534 2-7.483 2.718-13.06 1.431-11.107-.06-18.961-4.433-23.346-5.443-5.46-12.327-3.294-16.508-.585-4.027-4.354-16.226-13.14-46.14-7.198C9.19 3.75 3.828 9.095 2.07 17.884c-1.455 7.283-.36 15.818.698 24.073.198 1.546.388 3.026.558 4.476A9.679 9.679 0 000 53.739c0 4.545 3.138 8.366 7.356 9.405.044 1.305.095 2.608.161 3.907.39 7.62 4.745 14.11 11.051 17.478-4.45 4.801-11.614 16.043-11.706 38.675-.726 2.031-2.542 8.18.704 11.434 1.501 1.506 3.8 1.963 6.04 1.963 1.224 0 2.428-.137 3.476-.314.315 5.575 1.167 12.155 3.185 18.042a9.964 9.964 0 00-4.38 8.254A2.414 2.414 0 0018.299 165h20.763a2.414 2.414 0 002.41-2.417v-7.507-.035c0-.041-.004-.082-.006-.123a2.29 2.29 0 00-.045-.373l-.002-.013c-.007-.032-.697-3.292-.9-7.54a2.411 2.411 0 00-2.522-2.299 2.414 2.414 0 00-2.292 2.53c.1 2.102.306 3.97.506 5.401H24.777c-4.04-11.936-2.737-30.849-2.643-31.842h41.633s1.62 19.514-2.557 31.843H49.78c.825-5.872 1.745-19.028-5.08-25.874a2.405 2.405 0 00-3.409 0c-2.134 2.14-3.685 5.06-4.612 8.679a2.41 2.41 0 104.669 1.202c.41-1.601.96-3.003 1.644-4.195 3.712 6.524 2.491 17.822 1.578 22.094l-.003.016c-.01.05-.016.1-.023.152a2.452 2.452 0 00-.025.29l-.002.052v7.542a2.414 2.414 0 002.41 2.417H67.69a2.414 2.414 0 002.41-2.417 9.965 9.965 0 00-4.378-8.253c4.561-13.303 3.156-30.16 3.093-30.88l-.421-5.276-.004-.05c-.624-6.188-2.528-11.438-4.054-14.815 2.14.126 4.897.236 7.877.219 7.988-.044 13.991-.965 17.89-2.738.961.632 2.37 1.383 4.11 1.816v59.977a2.414 2.414 0 002.41 2.417 2.414 2.414 0 002.41-2.417v-59.797c.4-.069.806-.152 1.221-.269 2.63-.738 4.395-5.68 4.61-8.814.244-3.571-1.167-6.296-3.872-7.476a9 9 0 00-1.96-.597V76.55c8.174-4.721 16.514-1.97 25.32.943 4.293 1.42 8.731 2.887 13.214 3.475a2.413 2.413 0 002.702-2.083 2.416 2.416 0 00-2.077-2.71c-4.03-.53-8.061-1.862-12.329-3.273-8.702-2.878-17.664-5.841-26.829-1.78V36.822c8.173-4.719 16.512-1.962 25.317.95 8.702 2.877 17.664 5.84 26.83 1.777v34.303a19.227 19.227 0 01-3.1 1.45 2.419 2.419 0 00-1.454 3.093 2.408 2.408 0 003.083 1.457 24.599 24.599 0 005.207-2.635A2.42 2.42 0 00156 75.198V35.474c0-.89-.487-1.707-1.268-2.128zm-133.42 126.82a5.113 5.113 0 014.493-2.707H36.65v2.707H21.313zm28.025 0v-2.707h10.846a5.113 5.113 0 014.492 2.707H49.337zm29.41-102.232c.03-2.816.01-5.63-.063-8.431a4.851 4.851 0 01.062 8.431zM4.82 53.74a4.857 4.857 0 012.482-4.236c-.073 2.805-.093 5.62-.063 8.43A4.852 4.852 0 014.82 53.74zM9.3 44.06a9.623 9.623 0 00-1.387.152 739.2 739.2 0 00-.364-2.872c-1.01-7.867-2.052-16.002-.752-22.506 1.375-6.878 5.234-10.72 12.145-12.094 9.938-1.974 23.988-3.403 34.49.998 6.116 2.563 8.15 5.964 8.156 5.972a2.404 2.404 0 003.702.65c.018-.017 1.897-1.637 4.39-2.543 3.055-1.112 5.53-.66 7.564 1.381 6.053 6.07 3.001 22.72.69 30.99a9.628 9.628 0 00-1.247-.128c-2.867-1.311-4.538-5.411-5.44-8.69-1.104-4.014-4.135-7.124-8.107-8.318a11.853 11.853 0 00-11.299 2.463c-5.044 4.428-12.651 4.428-17.696 0a11.854 11.854 0 00-11.299-2.463c-3.972 1.194-7.002 4.304-8.106 8.317-.902 3.28-2.573 7.38-5.44 8.691zm3.031 22.743a224.053 224.053 0 01-.165-18.78c3.234-1.876 5.66-5.69 7.221-11.368a7.132 7.132 0 014.844-4.972 7.07 7.07 0 016.74 1.47c6.854 6.016 17.191 6.016 24.046 0a7.07 7.07 0 016.74-1.47 7.133 7.133 0 014.843 4.972c1.562 5.678 3.987 9.492 7.22 11.367.209 6.225.153 12.536-.165 18.781-.426 8.354-7.036 14.952-15.376 15.347-10.142.48-20.427.48-30.572 0-8.338-.395-14.948-6.993-15.376-15.347zm30.663 41.125l-4.369-3.141 1.304-8.871h6.13l1.304 8.87-4.37 3.142zm3.065-16.847h-6.13l-.551-3.758c1.205.013 2.41.021 3.616.021s2.412-.008 3.617-.021l-.552 3.758zM23.537 86.42c1.271.305 2.59.494 3.942.559 2.332.11 4.67.192 7.013.252l.92 6.266-1.77 12.042a2.42 2.42 0 00.98 2.317l5.963 4.288v3.804H22.891c.674-3.107 1.484-5.307 1.498-5.344a2.42 2.42 0 00-1.41-3.11 2.408 2.408 0 00-3.104 1.414c-.061.164-1.51 4.072-2.262 9.099a41.571 41.571 0 00-.354 3.218h-5.551c.554-22.988 8.937-32.276 11.829-34.805zm-12.562 44.8c-.676-.677-.528-2.995.047-5.16h5.992c-.06 1.368-.108 3.203-.09 5.347-2.845.569-5.333.432-5.95-.187zM60.46 98.16a2.407 2.407 0 00-2.298 1.125 2.423 2.423 0 00.004 2.564c.04.065 3.662 5.928 5.064 14.1H45.405v-3.806l5.96-4.286a2.42 2.42 0 00.98-2.317l-1.77-12.04.922-6.268c2.341-.06 4.68-.143 7.01-.253 1.523-.072 3-.31 4.419-.684 10.035 3.398 20.519 5.81 24.62 6.702l.269 3.529c-6.919 2.96-21.845 2.218-27.355 1.635zM100 92.032c.3 1.644-.374 3.891-1.011 5.188a1.582 1.582 0 01-1.271.875c-2.285.217-4.122-.757-5.055-1.392l-.348-4.564c1.436-.977 4.31-2.545 6.755-1.478.366.16.762.447.93 1.371z" fill="#000" fill-rule="nonzero"/></g></svg>