<svg width="175" height="202" xmlns="http://www.w3.org/2000/svg"><g fill="none" fill-rule="evenodd"><g fill-rule="nonzero"><path fill="#CCDCE5" d="M3.56 151.5h137.626v33.865H3.56zM33.22 16.635h137.627c0 18.703-15.028 33.865-33.567 33.865H33.22V16.635z"/><path d="M56.495 20.262a35.628 35.628 0 00-4.29-3.627H33.22V50.5h53.39L56.495 20.262zM117.912 181.738a35.628 35.628 0 004.29 3.627h18.984V151.5h-53.39l30.116 30.238z" fill="#ABBAC2"/><path d="M142.951 185.365c15.735 0 28.49-12.775 28.49-28.533a28.556 28.556 0 00-8.344-20.176L52.195 25.586a28.47 28.47 0 00-20.146-8.357c-15.735 0-28.49 12.775-28.49 28.533a28.556 28.556 0 008.344 20.176l110.902 111.07a28.47 28.47 0 0020.146 8.357z" fill="#EF5249"/><path fill="#CCDCE5" d="M87.181 87.538l13.441-13.465 50.402 50.491-13.441 13.465z"/><path d="M84.135 155.225v-6.741H3.367A3.37 3.37 0 000 151.854v33.705a3.37 3.37 0 003.367 3.37h137.978v-.084c.576.03 1.151.084 1.733.084 12.911 0 24.55-7.788 29.491-19.734a32.005 32.005 0 00-6.92-34.84L54.494 23.028a32.453 32.453 0 00-3.002-2.622h116.588c-1.731 15.344-14.681 26.945-30.1 26.963H90.866v6.741h47.115c20.435-.024 36.994-16.609 37.02-37.075a3.37 3.37 0 00-3.367-3.37H33.655v.084c-.576-.03-1.151-.084-1.733-.084-12.911 0-24.55 7.788-29.491 19.735a32.005 32.005 0 006.92 34.84l111.156 111.326c.946.935 1.949 1.81 3.002 2.622H90.865v-16.852h-6.73v16.852h-6.731v-10.111h-6.73v10.111h-6.731v-16.852h-6.73v16.852H50.48v-10.111h-6.73v10.111h-6.73v-16.852h-6.732v16.852h-6.73v-10.111h-6.73v10.111H6.731v-26.963h77.403zm8.124-67.41l8.702-8.716 5.338 5.346-8.703 8.716-5.337-5.346zm18.798 1.396l5.338 5.345-8.703 8.716-5.337-5.345 8.702-8.716zm10.096 10.111l5.338 5.346-8.703 8.716-5.337-5.346 8.702-8.716zm10.096 10.111l5.338 5.346-8.703 8.716-5.338-5.346 8.703-8.716zm10.096 10.112l5.338 5.345-8.703 8.716-5.338-5.345 8.703-8.716zM14.11 63.474c-9.838-9.853-9.838-25.828 0-35.68 9.838-9.853 25.788-9.853 35.625 0l46.469 46.54L85.12 85.431a3.374 3.374 0 000 4.766l50.48 50.557a3.362 3.362 0 004.758 0l11.082-11.099 9.45 9.465c9.838 9.852 9.838 25.827 0 35.68-9.838 9.852-25.788 9.852-35.625 0L14.109 63.473z" fill="#000"/><path fill="#000" d="M117.458 27.33h33.813v6.535h-33.813zM26.695 0h87.203v6.535H26.695zM70.593 195.465h87.204V202H70.593zM121.017 0h6.525v6.535h-6.525z"/></g><path stroke="#000" stroke-width="6" d="M42.119 31.481l24.329 24.366-24.33 24.366L17.79 55.847z"/><g fill-rule="nonzero"><path fill="#F7DF1E" d="M21.68 55.831l20.555-20.554L62.82 55.862 42.266 76.416z"/><path d="M51.777 57.905c1.102.257 2.152.205 3.125-.768.818-.818.939-1.742.383-2.298-.665-.665-1.437-.364-2.725.15l-.701.285c-2.021.827-3.715 1.026-5.294-.554-1.456-1.455-1.436-3.69.327-5.454 1.255-1.254 2.587-1.727 4.36-1.253l-.566 2.507c-.935-.258-1.535-.128-2.102.439-.578.578-.584 1.305-.113 1.776.582.582 1.185.45 2.392-.035l.701-.286c2.385-.97 4.052-1.196 5.673.424 1.747 1.747 1.308 4.1-.567 5.975-1.833 1.833-3.876 2.159-5.581 1.613l.688-2.52zm-6.804 7.141c.85.23 1.59.406 2.268-.272.648-.649.808-1.307-.162-2.277l-6.598-6.598 1.974-1.974 6.624 6.625c2.01 2.009 1.726 4.121-.023 5.87-1.58 1.58-3.3 1.692-4.734 1.189l.65-2.563z" fill="#000"/></g></g></svg>