<svg width="223" height="289" xmlns="http://www.w3.org/2000/svg"><g fill-rule="nonzero" fill="none"><path d="M112.5 6C69.146 6 34 40.842 34 83.822V137h26.167V83.822c0-28.607 23.477-51.881 52.333-51.881 28.856 0 52.333 23.274 52.333 51.881V137H191V83.822C191 40.842 155.854 6 112.5 6z" fill="#4C5870"/><path d="M209.417 124H156.75L137 203l19.75 79h52.667c3.62 0 6.583-2.963 6.583-6.583V130.583c0-3.62-2.963-6.583-6.583-6.583z" fill="#269AF2"/><path d="M158.458 124H14.542C10.944 124 8 126.963 8 130.583v144.834c0 3.62 2.944 6.583 6.542 6.583h143.916c3.598 0 6.542-2.963 6.542-6.583V130.583c0-3.62-2.944-6.583-6.542-6.583z" fill="#BEC8D6"/><path d="M106 184.75c0-10.908-8.954-19.75-20-19.75-11.045 0-20 8.842-20 19.75 0 6.8 3.48 12.795 8.777 16.348L66 244h40l-8.777-42.902c5.297-3.553 8.777-9.55 8.777-16.348z" fill="#4C5870"/><g fill="#11113F"><path d="M209.844 119h-13.112V85c0-46.87-38.234-85-85.232-85S26.269 38.13 26.269 85v34H13.156c-7.23 0-13.112 5.866-13.112 13.076v143.847c0 7.21 5.882 13.077 13.112 13.077h196.688c7.23 0 13.112-5.866 13.112-13.077V132.077c0-7.21-5.882-13.077-13.112-13.077zM39.381 85c0-39.659 32.353-71.923 72.119-71.923S183.619 45.34 183.619 85v34h-13.112V85c0-32.448-26.47-58.846-59.006-58.846S52.494 52.552 52.494 85v34H39.38V85zm26.225 34V85c0-25.237 20.588-45.769 45.894-45.769 25.306 0 45.894 20.532 45.894 45.77v34H65.606zm144.238 156.923h-39.337v-32.692c0-3.611-2.936-6.539-6.557-6.539-3.62 0-6.556 2.928-6.556 6.539v32.692H13.156V132.077h144.238v88.85c0 3.611 2.936 6.54 6.556 6.54s6.557-2.929 6.557-6.54v-88.85h39.337v143.846z"/><path d="M85.275 158.23c-14.46 0-26.226 11.734-26.226 26.155a26.1 26.1 0 007.983 18.789l-7.853 38.762a6.525 6.525 0 001.353 5.436 6.562 6.562 0 005.074 2.398h39.338c1.966 0 3.828-.88 5.074-2.398a6.528 6.528 0 001.352-5.436l-7.852-38.762a26.099 26.099 0 007.982-18.79c0-14.42-11.765-26.153-26.225-26.153zm4.611 43.686l7.044 34.776H73.62l7.044-34.776a6.532 6.532 0 00-2.742-6.704 13.071 13.071 0 01-5.76-10.828c0-7.211 5.883-13.077 13.113-13.077 7.23 0 13.112 5.866 13.112 13.077 0 4.338-2.152 8.385-5.758 10.828a6.533 6.533 0 00-2.743 6.704z"/></g></g></svg>