<svg width="273" height="318" xmlns="http://www.w3.org/2000/svg"><g fill-rule="nonzero" fill="none"><g transform="translate(5 5)"><path d="M35.92 110.991L1.58 42.521c-2.891-5.714-.608-12.694 5.1-15.59 5.708-2.895 12.68-.61 15.57 5.106L52.94 93.292l46.108 91.147-17.664 10.784-45.464-84.232z" fill="#D77F4A"/><path d="M50.862 113.637l-34.338-68.47c-2.768-5.47-.786-12.09 4.395-15.186-3.362-4.164-9.276-5.566-14.238-3.05-5.708 2.896-7.991 9.876-5.1 15.59l34.338 68.47 45.464 84.232 10.165-6.205-40.686-75.381z" fill="#C86D36"/><path d="M217.48 264.413l13.033 39.23c1.103 3.32-2.466 6.253-5.504 4.521l-37.859-21.577-27.146-17.697 48.163-34.117 9.314 29.64zM64.983 286.587l-37.859 21.577c-3.037 1.731-6.606-1.202-5.503-4.522l13.032-39.229 6.531-22.03L88.29 276.31l-23.307 10.278z" fill="#918291"/><path d="M214.832 92.971h-22.124c-1.146 0-1.846-1.242-1.269-2.234a24.884 24.884 0 003.331-13.924c-.692-12.688-11.041-22.946-23.72-23.524a24.809 24.809 0 00-11.485 2.216c-1.074.491-2.329.03-2.911-.999-6.188-10.923-18.04-18.206-31.56-17.84-18.264.495-33.28 15.22-34.13 33.492-.4 8.576 2.273 16.515 7.005 22.813H58.075c-6.255 0-11.326 5.076-11.326 11.34v16.622h179.409V104.31c0-6.262-5.072-11.339-11.326-11.339z" fill="#6CF5C2"/><path d="M124.248 36.7c-17.925.904-32.446 15.5-33.284 33.45-.394 8.422 2.173 16.228 6.745 22.471a.219.219 0 01-.176.35H58.074c-6.255 0-11.326 5.077-11.326 11.34v16.623h89.704v-7.108l-18.02-8.038a8.187 8.187 0 01-3.551-3.065c-3.782-5.896-5.855-12.994-5.516-20.596.803-18.02 15.4-32.676 33.395-33.534a35.26 35.26 0 0110.605 1.097c-6.795-8.386-17.36-13.585-29.117-12.99z" fill="#00F2A6"/><path d="M25.08 124.118h197.19l4.784 14.012c13.648 16.504 21.654 36.507 21.654 58.069 0 56.515-54.907 102.336-122.641 102.336-67.735 0-122.641-45.821-122.641-102.336 0-21.562 8.006-41.565 21.653-58.069v-14.012z" fill="#7A6D79"/><g fill="#685E68"><path d="M167.488 288.016c-67.735 0-122.641-45.821-122.641-102.337 0-21.562 8.006-41.564 21.653-58.068v-3.493H25.08v14.012C11.431 154.634 3.425 174.637 3.425 196.2c0 56.515 54.906 102.336 122.64 102.336 20.145 0 39.154-4.053 55.922-11.235-4.757.468-9.594.716-14.5.716z"/><path d="M228.424 111.613h-10.398v15.86c0 1.127-4.14 2.04-9.248 2.04-5.107 0-9.247-.913-9.247-2.04v-7.9c0-1.127-4.14-2.042-9.247-2.042s-9.248.915-9.248 2.042v2.925c0 1.127-4.14 2.041-9.247 2.041s-9.247-.914-9.247-2.04v-10.886h-38.06.12v13.522c0 1.912-4.167 3.463-9.309 3.463-5.14 0-9.309-1.55-9.309-3.463v-.241c0-1.913-4.168-3.464-9.31-3.464-5.14 0-9.309 1.55-9.309 3.464v4.963c0 1.912-4.168 3.463-9.309 3.463-5.141 0-9.31-1.55-9.31-3.463l.01-12.25h-.01v-5.994H23.71c-7.143 0-12.934 5.797-12.934 12.95 0 7.152 5.79 12.95 12.934 12.95h45.036s55.354-.504 55.857 0H228.425c7.143 0 12.933-5.798 12.933-12.95 0-7.153-5.79-12.95-12.934-12.95z"/></g><path d="M167.488 213.908c0-23.247-18.823-42.094-42.042-42.094-23.218 0-42.041 18.847-42.041 42.094 0 15.804 8.703 29.566 21.569 36.764v5.02c0 4.172 3.377 7.553 7.543 7.553h25.239c4.165 0 7.543-3.38 7.543-7.552v-4.676c13.206-7.097 22.189-21.051 22.189-37.11z" fill="#F3F0F3"/><path d="M117.899 255.692v-2.555c0-1.5-.78-2.882-2.046-3.688-11.733-7.467-19.523-20.59-19.523-35.541 0-21.047 15.428-38.484 35.579-41.598a42.291 42.291 0 00-6.463-.496c-23.218 0-42.041 18.847-42.041 42.094 0 15.804 8.703 29.566 21.569 36.764v5.02c0 4.172 3.377 7.553 7.543 7.553h12.925c-4.166 0-7.543-3.381-7.543-7.553z" fill="#E2DEE2"/><ellipse fill="#7A6D79" cx="107.76" cy="211.415" rx="8.183" ry="8.193"/><ellipse fill="#7A6D79" cx="143.131" cy="211.415" rx="8.183" ry="8.193"/><path d="M124.602 111.613v36.002c0 5.092-4.169 9.222-9.31 9.222-5.141 0-9.31-4.129-9.31-9.222v-.642c0-5.093-4.167-9.222-9.308-9.222-5.142 0-9.31 4.129-9.31 9.222v13.214c0 5.093-4.168 9.222-9.31 9.222-5.14 0-9.308-4.128-9.308-9.222l.013-48.569 55.843-.005z" fill="#6CF5C2"/><g fill="#00F2A6"><path d="M79.328 160.182l.012-44.001v-4.596l-10.582.001-.013 48.596c0 5.096 4.168 9.227 9.31 9.227a9.32 9.32 0 005.29-1.64c-2.425-1.666-4.017-4.441-4.017-7.587zM116.566 147.38v-.648c0-1.097-.19-2.149-.538-3.125-.912-2.555-3.402-4.206-6.112-4.206h-7.501a9.302 9.302 0 013.567 7.33v.65c0 5.147 4.168 9.32 9.31 9.32a9.255 9.255 0 005.291-1.656 9.311 9.311 0 01-4.017-7.665z"/></g><path d="M162.54 111.613v48.954c0 5.07 4.14 9.181 9.248 9.181 5.107 0 9.247-4.11 9.247-9.18V147.41c0-5.07 4.14-9.18 9.248-9.18 5.107 0 9.247 4.11 9.247 9.18v35.528c0 5.07 4.14 9.18 9.247 9.18s9.247-4.11 9.247-9.18v-71.326h-55.483z" fill="#6CF5C2"/><g fill="#00F2A6"><path d="M173.114 157.636v-46.023H162.54v48.954c0 5.07 4.14 9.181 9.247 9.181a9.245 9.245 0 007.285-3.54c-3.481-1.316-5.96-4.653-5.96-8.572zM210.104 180v-35.528c0-1.365-.302-2.66-.842-3.823-.545-1.176-1.746-1.909-3.04-1.909H193.34l.29.114c3.45 1.333 5.9 4.653 5.9 8.55v35.526c0 5.071 4.14 9.181 9.247 9.181a9.245 9.245 0 007.285-3.54c-3.48-1.316-5.96-4.653-5.96-8.572z"/></g><path d="M209.087 240.018c-5.14 0-9.309-4.173-9.309-9.32v-8.03c0-5.147 4.168-9.32 9.31-9.32 5.14 0 9.309 4.173 9.309 9.32v8.03c0 5.147-4.168 9.32-9.31 9.32z" fill="#6CF5C2"/><path d="M208.716 230.698v-8.03a9.32 9.32 0 014.84-8.176 9.26 9.26 0 00-4.469-1.145c-5.14 0-9.309 4.174-9.309 9.321v8.029c0 5.148 4.168 9.32 9.31 9.32 1.62 0 3.142-.415 4.468-1.144a9.317 9.317 0 01-4.84-8.175z" fill="#00F2A6"/><ellipse fill="#6CF5C2" cx="241.358" cy="22.58" rx="22.242" ry="22.269"/><path d="M232.52 24.093c0-10.815 7.7-19.826 17.91-21.844A22.134 22.134 0 00241.359.31c-12.284 0-22.242 9.97-22.242 22.269 0 12.299 9.958 22.27 22.242 22.27 1.482 0 2.93-.15 4.33-.426-7.76-3.477-13.168-11.269-13.168-20.331z" fill="#00F2A6"/><ellipse fill="#6CF5C2" cx="179.971" cy="24.093" rx="10.498" ry="10.511"/></g><g fill="#000"><path d="M258.011 200.748c0-19.7-6.318-38.707-18.336-55.383 6.433-2.627 10.98-8.954 10.98-16.326 0-8.907-6.638-16.289-15.22-17.46v-2.812c0-8.831-7.177-16.016-16-16.016h-17.152a29.564 29.564 0 001.766-10.111c0-16.342-13.282-29.636-29.606-29.636a29.61 29.61 0 00-10.257 1.836c-7.271-11.491-19.781-18.462-33.62-18.462-21.97 0-39.845 17.893-39.845 39.886 0 5.773 1.212 11.356 3.547 16.488H62.492c-.795 0-1.575.06-2.34.173L30.785 34.314c-4.052-8.005-13.855-11.22-21.852-7.164a16.167 16.167 0 00-8.105 9.454 16.176 16.176 0 00.94 12.406l16.61 33.113a4.66 4.66 0 006.255 2.075 4.667 4.667 0 002.074-6.262L10.09 44.809a6.91 6.91 0 01-.404-5.3 6.9 6.9 0 013.458-4.036c3.414-1.73 7.598-.36 9.318 3.041l29.27 58.412a15.985 15.985 0 00-5.239 11.841v2.644h-2.995L35.627 95.72a4.659 4.659 0 00-6.256-2.075 4.667 4.667 0 00-2.073 6.262l5.77 11.506h-4.981c-9.71 0-17.61 7.908-17.61 17.628 0 7.372 4.547 13.699 10.98 16.326C9.44 162.043 3.12 181.05 3.12 200.75c0 25.838 10.788 50.241 30.568 69.615l-12.114 36.46a8.433 8.433 0 002.666 9.238A8.436 8.436 0 0029.607 318a8.48 8.48 0 004.205-1.123l37.38-21.3c18.09 8.014 38.348 12.269 59.375 12.269 21.026 0 41.284-4.254 59.374-12.27l37.38 21.3a8.48 8.48 0 004.205 1.124c1.911 0 3.806-.655 5.367-1.938a8.434 8.434 0 002.667-9.239l-12.115-36.46c19.778-19.374 30.566-43.778 30.566-69.615zm-16.677-71.71c0 4.575-3.718 8.298-8.29 8.298h-5.378v-16.595h5.379c4.57 0 8.289 3.723 8.289 8.298zm-185.52-20.27c0-3.688 2.996-6.687 6.679-6.687h48.214a4.663 4.663 0 004.66-4.665 4.663 4.663 0 00-4.66-4.665h-5.84c-3.161-4.916-4.825-10.57-4.825-16.488 0-16.848 13.693-30.555 30.525-30.555 11.62 0 22.013 6.418 27.245 16.779a30.226 30.226 0 013.279 13.776 4.663 4.663 0 004.66 4.665 4.663 4.663 0 004.66-4.665c0-4.41-.737-8.803-2.156-12.955a20.272 20.272 0 016.189-.974c11.186 0 20.285 9.11 20.285 20.306 0 3.595-.94 7.045-2.709 10.111h-4.614a4.663 4.663 0 00-4.66 4.665 4.663 4.663 0 004.66 4.665h32.032c3.683 0 6.679 3 6.679 6.686v2.644H55.814v-2.644zm106.61 28.568h-28.665v-16.595h28.664v16.595zm-61.287-.1c-7.709 0-13.98 6.278-13.98 13.994V164.6a4.668 4.668 0 01-4.66 4.665 4.668 4.668 0 01-4.66-4.665V120.74h46.601v31.138a4.667 4.667 0 01-4.66 4.665 4.667 4.667 0 01-4.66-4.665v-.649c0-7.717-6.271-13.995-13.98-13.995zm-73.05-16.494h40.429v16.595h-40.43c-4.57 0-8.288-3.722-8.288-8.298 0-4.575 3.718-8.297 8.289-8.297zm3.024 186.937l10.141-30.517c6.143 5.071 12.794 9.556 19.854 13.425L31.111 307.68zm-18.67-106.931c0-19.359 6.824-38.029 19.742-54.082h36.333V164.6c0 7.717 6.271 13.995 13.98 13.995 7.71 0 13.981-6.278 13.981-13.995V151.23a4.667 4.667 0 014.66-4.665c2.57 0 4.66 2.093 4.66 4.665v.649c0 7.717 6.272 13.995 13.981 13.995 7.71 0 13.98-6.278 13.98-13.995v-5.213h28.665V164.6c0 7.717 6.272 13.995 13.98 13.995 7.71 0 13.981-6.278 13.981-13.995v-13.37a4.667 4.667 0 014.66-4.664c2.57 0 4.66 2.092 4.66 4.665v36.103c0 7.717 6.272 13.995 13.981 13.995 7.71 0 13.98-6.278 13.98-13.995v-9.314a4.663 4.663 0 00-4.66-4.665 4.663 4.663 0 00-4.66 4.665v9.314a4.667 4.667 0 01-4.66 4.665 4.667 4.667 0 01-4.66-4.665V151.23c0-7.717-6.271-13.995-13.98-13.995-7.71 0-13.981 6.278-13.981 13.995v13.369a4.668 4.668 0 01-4.66 4.665 4.668 4.668 0 01-4.66-4.665V120.74h46.601v37.397a4.663 4.663 0 004.66 4.665 4.663 4.663 0 004.66-4.665v-11.472h1.284c12.917 16.053 19.741 34.723 19.741 54.082 0 53.909-52.99 97.767-118.125 97.767-65.133 0-118.124-43.858-118.124-97.767zm187.585 89.84c7.06-3.87 13.71-8.355 19.854-13.426l10.14 30.517-29.994-17.092z"/><path d="M129.945 171.673c-20.644 0-38.6 13.257-44.68 32.99a4.66 4.66 0 108.907 2.75c4.867-15.798 19.243-26.41 35.773-26.41 20.64 0 37.431 16.808 37.431 37.47a37.454 37.454 0 01-19.76 33.034 4.665 4.665 0 00-2.455 4.11v4.68a2.897 2.897 0 01-2.892 2.895h-7.975v-3.624a4.663 4.663 0 00-4.66-4.665 4.663 4.663 0 00-4.66 4.665v3.624H117a2.897 2.897 0 01-2.892-2.895v-5.026c0-1.69-.913-3.248-2.386-4.072-9.86-5.516-16.648-15.03-18.622-26.101a4.66 4.66 0 10-9.175 1.64c2.304 12.922 9.85 24.143 20.863 31.178v2.381c0 6.74 5.479 12.225 12.213 12.225h25.268c6.734 0 12.213-5.484 12.213-12.225v-1.986a46.763 46.763 0 0022.215-39.84c-.001-25.804-20.974-46.798-46.752-46.798z"/><path d="M125.09 215.978c0-7.094-5.765-12.866-12.852-12.866-7.087 0-12.853 5.771-12.853 12.866 0 7.094 5.766 12.866 12.853 12.866s12.853-5.772 12.853-12.866zm-16.384 0a3.538 3.538 0 013.533-3.536 3.538 3.538 0 013.532 3.536 3.538 3.538 0 01-3.532 3.536 3.538 3.538 0 01-3.533-3.536zM160.504 215.978c0-7.094-5.766-12.866-12.853-12.866s-12.853 5.771-12.853 12.866c0 7.094 5.766 12.866 12.853 12.866s12.853-5.772 12.853-12.866zm-16.385 0a3.538 3.538 0 013.533-3.536 3.538 3.538 0 013.532 3.536 3.538 3.538 0 01-3.532 3.536 3.538 3.538 0 01-3.533-3.536zM227.666 235.28v-8.038c0-7.717-6.272-13.995-13.98-13.995-7.71 0-13.981 6.279-13.981 13.995v8.037c0 7.717 6.271 13.995 13.98 13.995 7.71 0 13.98-6.278 13.98-13.995zm-9.32 0a4.667 4.667 0 01-4.66 4.664 4.667 4.667 0 01-4.66-4.665v-8.037a4.667 4.667 0 014.66-4.665c2.57 0 4.66 2.093 4.66 4.665v8.037zM245.994 0c-14.849 0-26.928 12.092-26.928 26.956 0 14.864 12.08 26.957 26.928 26.957 14.849 0 26.928-12.092 26.928-26.956C272.922 12.093 260.842 0 245.994 0zm0 44.583c-9.71 0-17.608-7.907-17.608-17.626 0-9.72 7.899-17.627 17.608-17.627 9.71 0 17.608 7.907 17.608 17.626 0 9.72-7.899 17.627-17.608 17.627zM184.534 43.657c8.365 0 15.17-6.813 15.17-15.186 0-8.374-6.805-15.186-15.17-15.186s-15.17 6.812-15.17 15.185c0 8.373 6.805 15.187 15.17 15.187zm0-21.043c3.226 0 5.85 2.627 5.85 5.856s-2.624 5.856-5.85 5.856c-3.225 0-5.85-2.627-5.85-5.856s2.625-5.856 5.85-5.856zM170.067 92.752h-4.938a4.663 4.663 0 00-4.66 4.665 4.663 4.663 0 004.66 4.665h4.938a4.663 4.663 0 004.66-4.665 4.662 4.662 0 00-4.66-4.665z"/></g></g></svg>