<svg width="348" height="348" xmlns="http://www.w3.org/2000/svg"><g fill-rule="nonzero" fill="none"><g fill="#FFC850"><path d="M157.264 110.085l-73.752 73.966-72.71-6.427c-5.198-.46-7.504-6.799-3.817-10.496a186.613 186.613 0 01116.613-54.227l33.666-2.816zM238.382 191.439l-73.752 73.966 6.433 72.945c.46 5.215 6.783 7.53 10.47 3.832 31.242-31.332 50.39-72.77 54.051-116.97l2.798-33.773z"/></g><g fill="#F9B428"><path d="M20.714 166.558c25.988-26.075 58.293-44.573 93.627-54.023A186.816 186.816 0 006.988 165.82c-3.691 3.704-1.382 10.054 3.822 10.514l10.809.956c-3.252-2.48-4.106-7.52-.905-10.732zM185.794 333.896l-7.342-83.297-13.623 13.67 6.44 73.071c.46 5.225 6.792 7.543 10.484 3.84 1.584-1.59 3.129-3.212 4.65-4.853a7.9 7.9 0 01-.61-2.431z"/></g><path d="M336.833 6.199l-58.25 16.977-43.033 12.541a21.993 21.993 0 00-9.375 5.54L69.49 197.481a5.062 5.062 0 000 7.174l31.38 31.288 11.51 11.477 31.048 30.956a5.57 5.57 0 007.859 0l87.616-87.564 68.278-67.885a24.325 24.325 0 006.194-10.407L342.8 12.15c1.067-3.638-2.319-7.014-5.967-5.951z" fill="#E4EAF8"/><path d="M93.445 193.21L234.398 51.89a18.155 18.155 0 017.748-4.603L340.7 18.404l2.105-7.22c.008-.03.01-.057.018-.086 1-3.662-2.402-6.95-5.987-5.9L235.062 35.027a19.99 19.99 0 00-8.53 5.068L69.482 197.553c-1.969 1.974-1.984 5.223 0 7.213L75.702 211l17.744-17.79z" fill="#D8DCE5"/><circle fill="#707487" cx="235" cy="113" r="29"/><path d="M228.635 92.493c3.823-3.914 8.467-6.473 13.365-7.682-9.276-2.29-19.461.27-26.702 7.682-11.064 11.325-11.064 29.688 0 41.014 7.24 7.412 17.426 9.972 26.702 7.682-21.367-5.274-29.04-32.652-13.365-48.696z" fill="#5B5D6E"/><path d="M113.13 246.534l-11.664-11.664L79.596 213 63.22 229.375c-2.962 2.96-2.96 7.805 0 10.767l22.318 22.318 22.32 22.32c2.96 2.96 7.805 2.96 10.766 0L135 268.403l-21.87-21.87z" fill="#707487"/><path d="M69.571 241.879L88 222.87 78.43 213 62.2 229.738c-2.934 3.026-2.933 7.979 0 11.006L67.298 246a9.054 9.054 0 012.274-4.121z" fill="#5B5D6E"/><path d="M130.06 229.533l-11.5-11.522L83.62 183l-14.132 14.16a5.1 5.1 0 000 7.201l31.347 31.41 11.5 11.522 31.015 31.078a5.543 5.543 0 007.85 0l13.8-13.827-34.94-35.011z" fill="#C3C8D1"/><path d="M69.463 204.683L75.571 211 93 192.973 83.359 183l-13.896 14.373c-1.95 2.018-1.951 5.291 0 7.31z" fill="#B0B3B7"/><path d="M335.872 6.198L278 23.115 324.885 70l16.917-57.872c1.059-3.624-2.305-6.99-5.93-5.93z" fill="#FF5050"/><path d="M335.873 6.197L316.87 11.73 278 23.049 288.993 34l50.717-14.769 2.091-7.128c1.061-3.61-2.304-6.96-5.928-5.906z" fill="#ED3A3A"/><path d="M85.775 263.723l-.498-.498a7.775 7.775 0 010-10.995L187.23 150.277a7.775 7.775 0 0110.995 0l.498.498a7.775 7.775 0 010 10.995L96.772 263.723a7.776 7.776 0 01-10.997 0z" fill="#FFC850"/><path d="M85.775 263.723l-.498-.498a7.775 7.775 0 010-10.995L187.23 150.277a7.775 7.775 0 0110.995 0l.498.498a7.775 7.775 0 010 10.995L96.772 263.723a7.776 7.776 0 01-10.997 0z" fill="#FFC850"/><path d="M91.245 256.4L193.35 154.442A7.766 7.766 0 01199 152.17a7.804 7.804 0 00-1.102-1.396l-.499-.498a7.794 7.794 0 00-11.011 0L84.28 252.236a7.767 7.767 0 000 10.996l.498.498a7.757 7.757 0 005.364 2.27c-1.872-3-1.51-6.993 1.102-9.6z" fill="#F9B428"/><path d="M51.481 249.519a5.185 5.185 0 00-7.332 0l-17.63 17.63a5.185 5.185 0 107.332 7.332l17.63-17.63a5.185 5.185 0 000-7.332zM68.481 266.519a5.185 5.185 0 00-7.332 0l-17.63 17.63a5.185 5.185 0 107.332 7.332l17.63-17.63a5.185 5.185 0 000-7.332zM94.149 301.519l-17.63 17.63a5.185 5.185 0 107.332 7.332l17.63-17.63a5.185 5.185 0 10-7.332-7.332zM85.481 283.519a5.185 5.185 0 00-7.332 0l-17.63 17.63a5.185 5.185 0 107.332 7.332l17.63-17.63a5.185 5.185 0 000-7.332zM335.298.41L228.616 31.594c-.822.24-1.57.683-2.174 1.289l-71.293 71.293-31.854 2.68c-45.258 3.81-87.87 23.595-119.985 55.71-6.76 6.76-2.537 18.33 6.975 19.16l61.906 5.408-6.414 6.414a10.18 10.18 0 000 14.404l6.192 6.192L59.413 226.7c-4.918 4.917-4.918 12.919 0 17.835 5.374 5.375 38.65 38.652 44.054 44.054 4.917 4.918 12.918 4.918 17.835 0l12.556-12.555 5.858 5.86c4.16 4.16 10.922 4.145 15.07 0l6.08-6.083 5.408 61.906c.385 4.404 3.205 8.079 7.359 9.59 4.142 1.508 8.668.517 11.8-2.616 19.762-19.761 34.705-43.086 44.416-69.327a5.097 5.097 0 10-9.562-3.538c-9.196 24.851-23.348 46.941-42.063 65.656a1.046 1.046 0 01-1.793-.654l-6.152-70.43 62.39-62.39c-2.07 25.274-2.632 31.866-5.522 44.676a5.098 5.098 0 009.945 2.243c3.53-15.64 3.798-23.074 6.732-58.075l71.293-71.294a5.096 5.096 0 001.289-2.174l14.156-48.43v-.001L347.59 12.7c2.196-7.512-4.802-14.485-12.292-12.291zM323.19 59.834L288.165 24.81l49.492-14.467-14.467 49.492zM10.52 169.776c30.414-30.414 70.77-49.151 113.63-52.76l19.826-1.668-62.373 62.373-70.43-6.152a1.047 1.047 0 01-.653-1.793zm184.043-12.036l-68.15 68.152c-3.67 3.668-30.296 30.295-33.462 33.46a3.04 3.04 0 01-4.302 0 3.046 3.046 0 010-4.302L190.26 153.437a3.042 3.042 0 114.302 4.302zm-93.801 70.779c-11.001-11.001-25.305-25.292-27.776-27.762l10.541-10.541 27.769 27.769-10.534 10.534zm-34.14 5.39l12.555-12.556 14.376 14.375L81.19 248.09a12.99 12.99 0 00-1.7 2.104l-12.869-12.867c-.926-.927-.926-2.492 0-3.419zm47.47 47.471a2.409 2.409 0 01-1.708.699c-.378 0-1.1-.091-1.71-.699l-12.868-12.87a13.02 13.02 0 002.105-1.698l12.362-12.363 14.375 14.376-12.556 12.555zm5.39-34.14l10.535-10.535 27.768 27.768-10.21 10.21c-.01.01-.025.014-.036.024a.457.457 0 01-.614-.024l-27.442-27.444zm187.505-131.967L164.995 257.265l-27.768-27.77 64.796-64.795c4.67-4.67 5.566-12.655-.5-18.721-5.034-5.035-13.185-5.036-18.222 0l-64.796 64.796-27.768-27.769L232.728 41.015l44.28-12.944 42.92 42.921-12.941 44.28z" fill="#000"/><path d="M249.983 81.45c-2.567-1.15-5.587-.017-6.746 2.534-1.16 2.55-.018 5.552 2.549 6.704 15.158 6.804 18.74 26.622 7.022 38.266-9.276 9.219-24.369 9.219-33.645 0-11.723-11.651-8.157-31.454 7.023-38.266 2.567-1.152 3.708-4.154 2.549-6.704-1.16-2.551-4.18-3.685-6.747-2.534-21.654 9.72-26.814 37.998-10.036 54.672 6.627 6.585 15.331 9.878 24.035 9.878 30.187 0 45.39-36.43 24.035-57.652a33.878 33.878 0 00-10.039-6.898z" fill="#000"/></g></svg>